<svg width="869" height="296" viewBox="0 0 869 296" fill="none" xmlns="http://www.w3.org/2000/svg">
<path d="M27.8609 232H0V158H27.8241C35.5039 158 42.1164 159.481 47.6616 162.444C53.2313 165.383 57.5252 169.623 60.5432 175.163C63.5611 180.679 65.0701 187.28 65.0701 194.964C65.0701 202.672 63.5611 209.297 60.5432 214.837C57.5497 220.377 53.2682 224.629 47.6984 227.592C42.1287 230.531 35.5162 232 27.8609 232ZM18.2181 216.752H27.1616C31.3818 216.752 34.9519 216.053 37.8717 214.656C40.816 213.235 43.0365 210.935 44.5333 207.755C46.0545 204.551 46.8151 200.287 46.8151 194.964C46.8151 189.64 46.0545 185.401 44.5333 182.245C43.012 179.065 40.7669 176.777 37.7981 175.38C34.8537 173.959 31.2224 173.248 26.904 173.248H18.2181V216.752Z" fill="#1B1B19"/>
<path d="M71.5609 232V158H124.118V172.525H89.7791V187.701H121.431V202.263H89.7791V217.475H124.118V232H71.5609Z" fill="#1B1B19"/>
<path d="M131.381 232V158H149.599V217.475H180.957V232H131.381Z" fill="#1B1B19"/>
<path d="M204.46 158V232H186.242V158H204.46Z" fill="#1B1B19"/>
<path d="M228.866 158L245.722 212.199H246.348L263.204 158H283.594L258.162 232H233.908L208.476 158H228.866Z" fill="#1B1B19"/>
<path d="M287.563 232V158H340.12V172.525H305.782V187.701H337.433V202.263H305.782V217.475H340.12V232H287.563Z" fill="#1B1B19"/>
<path d="M347.384 232V158H378.52C384.164 158 389.034 159 393.132 160.999C397.254 162.974 400.431 165.817 402.664 169.526C404.897 173.212 406.013 177.584 406.013 182.643C406.013 187.773 404.872 192.133 402.59 195.723C400.308 199.288 397.07 202.01 392.874 203.889C388.678 205.743 383.71 206.671 377.968 206.671H358.278V192.579H374.582C377.33 192.579 379.624 192.23 381.465 191.531C383.329 190.809 384.74 189.725 385.697 188.279C386.654 186.81 387.132 184.931 387.132 182.643C387.132 180.354 386.654 178.463 385.697 176.97C384.74 175.452 383.329 174.32 381.465 173.573C379.6 172.802 377.306 172.417 374.582 172.417H365.602V232H347.384ZM389.819 198.18L408.589 232H388.715L370.313 198.18H389.819Z" fill="#1B1B19"/>
<path d="M429.981 158H452.542L471.68 203.816H472.563L491.702 158H514.263V232H496.523V186.545H495.897L477.79 231.53H466.454L448.346 186.292H447.721V232H429.981V158Z" fill="#1B1B19"/>
<path d="M521.48 232V158H574.037V172.525H539.698V187.701H571.35V202.263H539.698V217.475H574.037V232H521.48Z" fill="#1B1B19"/>
<path d="M12.9157 141.21H0L16.7759 91.5427H32.7749L49.5507 141.21H36.635L24.9575 104.056H24.569L12.9157 141.21ZM11.192 121.663H38.1888V130.782H11.192V121.663Z" fill="#070707"/>
<path d="M76.2285 125.131V103.959H88.076V141.21H76.7626V134.274H76.3742C75.5487 136.553 74.1406 138.364 72.1499 139.706C70.1753 141.032 67.788 141.695 64.988 141.695C62.4469 141.695 60.2133 141.113 58.2873 139.949C56.3613 138.785 54.8642 137.16 53.7959 135.074C52.7277 132.972 52.1855 130.515 52.1693 127.702V103.959H64.0411V125.373C64.0573 127.394 64.5914 128.987 65.6434 130.151C66.6955 131.315 68.1279 131.897 69.9406 131.897C71.1221 131.897 72.1822 131.638 73.121 131.121C74.0759 130.588 74.8285 129.82 75.3788 128.817C75.9453 127.799 76.2285 126.57 76.2285 125.131Z" fill="#070707"/>
<path d="M106.518 141.743C103.766 141.743 101.265 141.032 99.0158 139.609C96.766 138.186 94.9695 136.052 93.6261 133.207C92.2828 130.361 91.6111 126.829 91.6111 122.609C91.6111 118.227 92.307 114.622 93.699 111.793C95.0909 108.963 96.9117 106.87 99.1614 105.512C101.427 104.153 103.863 103.474 106.469 103.474C108.427 103.474 110.103 103.814 111.494 104.493C112.886 105.156 114.036 106.013 114.942 107.064C115.848 108.115 116.536 109.206 117.006 110.338H117.248V91.5427H129.12V141.21H117.37V135.171H117.006C116.504 136.319 115.792 137.394 114.869 138.397C113.947 139.399 112.789 140.207 111.397 140.822C110.022 141.436 108.395 141.743 106.518 141.743ZM110.645 132.503C112.085 132.503 113.315 132.099 114.335 131.291C115.355 130.466 116.14 129.31 116.69 127.823C117.24 126.335 117.515 124.589 117.515 122.585C117.515 120.547 117.24 118.793 116.69 117.322C116.156 115.851 115.371 114.719 114.335 113.927C113.315 113.135 112.085 112.738 110.645 112.738C109.172 112.738 107.926 113.143 106.906 113.951C105.886 114.759 105.109 115.899 104.575 117.37C104.057 118.842 103.798 120.58 103.798 122.585C103.798 124.589 104.066 126.335 104.6 127.823C105.134 129.31 105.903 130.466 106.906 131.291C107.926 132.099 109.172 132.503 110.645 132.503Z" fill="#070707"/>
<path d="M133.893 141.21V103.959H145.765V141.21H133.893ZM139.841 99.6184C138.174 99.6184 136.742 99.0687 135.544 97.9693C134.347 96.8537 133.748 95.5118 133.748 93.9436C133.748 92.3915 134.347 91.0657 135.544 89.9663C136.742 88.8508 138.174 88.293 139.841 88.293C141.525 88.293 142.957 88.8508 144.139 89.9663C145.336 91.0657 145.935 92.3915 145.935 93.9436C145.935 95.5118 145.336 96.8537 144.139 97.9693C142.957 99.0687 141.525 99.6184 139.841 99.6184Z" fill="#070707"/>
<path d="M167.994 141.913C164.077 141.913 160.711 141.113 157.894 139.512C155.094 137.895 152.934 135.648 151.412 132.77C149.907 129.876 149.155 126.521 149.155 122.706C149.155 118.874 149.907 115.519 151.412 112.641C152.934 109.747 155.094 107.5 157.894 105.9C160.711 104.283 164.077 103.474 167.994 103.474C171.911 103.474 175.269 104.283 178.069 105.9C180.885 107.5 183.046 109.747 184.551 112.641C186.073 115.519 186.833 118.874 186.833 122.706C186.833 126.521 186.073 129.876 184.551 132.77C183.046 135.648 180.885 137.895 178.069 139.512C175.269 141.113 171.911 141.913 167.994 141.913ZM168.067 132.964C169.491 132.964 170.697 132.528 171.684 131.655C172.672 130.782 173.424 129.569 173.942 128.017C174.476 126.465 174.743 124.67 174.743 122.633C174.743 120.564 174.476 118.753 173.942 117.201C173.424 115.649 172.672 114.436 171.684 113.563C170.697 112.69 169.491 112.253 168.067 112.253C166.594 112.253 165.348 112.69 164.328 113.563C163.325 114.436 162.556 115.649 162.022 117.201C161.504 118.753 161.245 120.564 161.245 122.633C161.245 124.67 161.504 126.465 162.022 128.017C162.556 129.569 163.325 130.782 164.328 131.655C165.348 132.528 166.594 132.964 168.067 132.964Z" fill="#070707"/>
<path d="M229.009 106.433C228.847 104.655 228.127 103.272 226.848 102.286C225.586 101.284 223.781 100.782 221.435 100.782C219.881 100.782 218.586 100.985 217.55 101.389C216.514 101.793 215.737 102.351 215.219 103.062C214.702 103.757 214.434 104.558 214.418 105.463C214.386 106.207 214.532 106.862 214.855 107.427C215.195 107.993 215.681 108.494 216.312 108.931C216.959 109.351 217.736 109.723 218.643 110.047C219.549 110.37 220.569 110.653 221.702 110.895L225.974 111.865C228.435 112.399 230.603 113.11 232.481 114C234.375 114.889 235.961 115.948 237.239 117.176C238.534 118.405 239.513 119.82 240.177 121.42C240.84 123.021 241.18 124.816 241.197 126.804C241.18 129.941 240.387 132.633 238.817 134.88C237.247 137.127 234.99 138.849 232.044 140.046C229.114 141.242 225.578 141.84 221.435 141.84C217.275 141.84 213.649 141.218 210.558 139.973C207.467 138.728 205.063 136.836 203.348 134.298C201.632 131.76 200.75 128.55 200.701 124.67H212.209C212.306 126.271 212.735 127.605 213.496 128.672C214.256 129.739 215.3 130.547 216.628 131.097C217.971 131.647 219.525 131.921 221.289 131.921C222.907 131.921 224.283 131.703 225.416 131.267C226.565 130.83 227.447 130.224 228.062 129.448C228.677 128.672 228.993 127.782 229.009 126.78C228.993 125.842 228.702 125.042 228.135 124.379C227.569 123.7 226.695 123.118 225.513 122.633C224.348 122.132 222.859 121.671 221.046 121.251L215.851 120.038C211.545 119.052 208.155 117.459 205.678 115.261C203.202 113.046 201.972 110.055 201.988 106.288C201.972 103.216 202.797 100.524 204.464 98.2118C206.131 95.8998 208.438 94.0972 211.384 92.8037C214.329 91.5103 217.688 90.8636 221.459 90.8636C225.311 90.8636 228.653 91.5184 231.485 92.828C234.334 94.1214 236.543 95.9403 238.113 98.2846C239.683 100.629 240.484 103.345 240.517 106.433H229.009Z" fill="#070707"/>
<path d="M261.938 141.913C258.022 141.913 254.655 141.113 251.839 139.512C249.039 137.895 246.878 135.648 245.357 132.77C243.852 129.876 243.099 126.521 243.099 122.706C243.099 118.874 243.852 115.519 245.357 112.641C246.878 109.747 249.039 107.5 251.839 105.9C254.655 104.283 258.022 103.474 261.938 103.474C265.855 103.474 269.214 104.283 272.014 105.9C274.83 107.5 276.991 109.747 278.496 112.641C280.017 115.519 280.778 118.874 280.778 122.706C280.778 126.521 280.017 129.876 278.496 132.77C276.991 135.648 274.83 137.895 272.014 139.512C269.214 141.113 265.855 141.913 261.938 141.913ZM262.011 132.964C263.436 132.964 264.641 132.528 265.629 131.655C266.616 130.782 267.369 129.569 267.886 128.017C268.421 126.465 268.688 124.67 268.688 122.633C268.688 120.564 268.421 118.753 267.886 117.201C267.369 115.649 266.616 114.436 265.629 113.563C264.641 112.69 263.436 112.253 262.011 112.253C260.538 112.253 259.292 112.69 258.272 113.563C257.269 114.436 256.5 115.649 255.966 117.201C255.448 118.753 255.189 120.564 255.189 122.633C255.189 124.67 255.448 126.465 255.966 128.017C256.5 129.569 257.269 130.782 258.272 131.655C259.292 132.528 260.538 132.964 262.011 132.964Z" fill="#070707"/>
<path d="M308.184 125.131V103.959H320.031V141.21H308.718V134.274H308.33C307.504 136.553 306.096 138.364 304.105 139.706C302.131 141.032 299.743 141.695 296.943 141.695C294.402 141.695 292.169 141.113 290.243 139.949C288.317 138.785 286.82 137.16 285.751 135.074C284.683 132.972 284.141 130.515 284.125 127.702V103.959H295.997V125.373C296.013 127.394 296.547 128.987 297.599 130.151C298.651 131.315 300.083 131.897 301.896 131.897C303.078 131.897 304.138 131.638 305.076 131.121C306.031 130.588 306.784 129.82 307.334 128.817C307.901 127.799 308.184 126.57 308.184 125.131Z" fill="#070707"/>
<path d="M336.725 91.5427V141.21H324.853V91.5427H336.725Z" fill="#070707"/>
<path d="M353.5 141.21V91.5427H374.039C377.762 91.5427 380.974 92.2702 383.677 93.7253C386.396 95.1642 388.492 97.1771 389.965 99.7639C391.438 102.335 392.175 105.326 392.175 108.737C392.175 112.165 391.422 115.164 389.917 117.734C388.428 120.289 386.299 122.269 383.532 123.676C380.764 125.082 377.478 125.786 373.675 125.786H361.002V116.328H371.441C373.254 116.328 374.767 116.012 375.981 115.382C377.211 114.751 378.142 113.87 378.773 112.738C379.404 111.591 379.72 110.257 379.72 108.737C379.72 107.201 379.404 105.875 378.773 104.76C378.142 103.628 377.211 102.755 375.981 102.141C374.751 101.526 373.238 101.219 371.441 101.219H365.518V141.21H353.5Z" fill="#070707"/>
<path d="M395.364 141.21V103.959H406.896V110.75H407.284C407.964 108.292 409.072 106.465 410.61 105.269C412.148 104.056 413.936 103.45 415.975 103.45C416.526 103.45 417.092 103.491 417.675 103.571C418.257 103.636 418.8 103.741 419.301 103.887V114.194C418.735 114 417.99 113.846 417.068 113.733C416.162 113.62 415.352 113.563 414.64 113.563C413.232 113.563 411.961 113.878 410.829 114.509C409.712 115.123 408.83 115.988 408.182 117.104C407.551 118.203 407.235 119.497 407.235 120.984V141.21H395.364Z" fill="#070707"/>
<path d="M436.875 141.913C432.958 141.913 429.592 141.113 426.776 139.512C423.975 137.895 421.815 135.648 420.293 132.77C418.788 129.876 418.036 126.521 418.036 122.706C418.036 118.874 418.788 115.519 420.293 112.641C421.815 109.747 423.975 107.5 426.776 105.9C429.592 104.283 432.958 103.474 436.875 103.474C440.792 103.474 444.15 104.283 446.95 105.9C449.766 107.5 451.927 109.747 453.432 112.641C454.954 115.519 455.715 118.874 455.715 122.706C455.715 126.521 454.954 129.876 453.432 132.77C451.927 135.648 449.766 137.895 446.95 139.512C444.15 141.113 440.792 141.913 436.875 141.913ZM436.948 132.964C438.372 132.964 439.578 132.528 440.565 131.655C441.553 130.782 442.305 129.569 442.823 128.017C443.357 126.465 443.624 124.67 443.624 122.633C443.624 120.564 443.357 118.753 442.823 117.201C442.305 115.649 441.553 114.436 440.565 113.563C439.578 112.69 438.372 112.253 436.948 112.253C435.475 112.253 434.229 112.69 433.209 113.563C432.206 114.436 431.437 115.649 430.903 117.201C430.385 118.753 430.126 120.564 430.126 122.633C430.126 124.67 430.385 126.465 430.903 128.017C431.437 129.569 432.206 130.782 433.209 131.655C434.229 132.528 435.475 132.964 436.948 132.964Z" fill="#070707"/>
<path d="M459.061 103.959H470.933V142.762C470.933 145.834 470.302 148.275 469.04 150.086C467.793 151.897 466.029 153.198 463.747 153.99C461.465 154.782 458.77 155.179 455.663 155.179C455.242 155.179 454.845 155.17 454.473 155.154C454.101 155.138 453.696 155.122 453.259 155.106V146.108C453.55 146.141 453.809 146.165 454.036 146.181C454.263 146.197 454.489 146.205 454.716 146.205C456.35 146.205 457.483 145.898 458.115 145.284C458.746 144.686 459.061 143.764 459.061 142.519V103.959ZM464.985 99.6184C463.318 99.6184 461.886 99.0687 460.688 97.9693C459.49 96.8537 458.892 95.5118 458.892 93.9436C458.892 92.3915 459.49 91.0657 460.688 89.9663C461.886 88.8508 463.318 88.293 464.985 88.293C466.669 88.293 468.101 88.8508 469.282 89.9663C470.48 91.0657 471.079 92.3915 471.079 93.9436C471.079 95.5118 470.48 96.8537 469.282 97.9693C468.101 99.0687 466.669 99.6184 464.985 99.6184Z" fill="#070707"/>
<path d="M493.186 141.913C489.286 141.913 485.919 141.145 483.087 139.609C480.271 138.057 478.102 135.85 476.58 132.988C475.075 130.111 474.323 126.691 474.323 122.73C474.323 118.882 475.083 115.519 476.605 112.641C478.126 109.747 480.271 107.5 483.038 105.9C485.806 104.283 489.067 103.474 492.822 103.474C495.477 103.474 497.904 103.887 500.106 104.711C502.307 105.536 504.209 106.756 505.811 108.373C507.413 109.99 508.659 111.987 509.55 114.363C510.44 116.724 510.885 119.432 510.885 122.488V125.446H478.474V118.559H499.839C499.822 117.298 499.523 116.174 498.94 115.188C498.358 114.202 497.556 113.434 496.537 112.884C495.533 112.318 494.376 112.035 493.065 112.035C491.738 112.035 490.548 112.334 489.496 112.932C488.444 113.515 487.611 114.315 486.996 115.333C486.381 116.336 486.057 117.476 486.025 118.753V125.762C486.025 127.281 486.324 128.615 486.923 129.763C487.522 130.895 488.371 131.776 489.472 132.406C490.573 133.037 491.884 133.352 493.405 133.352C494.457 133.352 495.412 133.207 496.27 132.916C497.127 132.625 497.864 132.196 498.479 131.63C499.094 131.064 499.555 130.369 499.863 129.545L510.763 129.86C510.31 132.301 509.315 134.427 507.777 136.238C506.256 138.033 504.257 139.431 501.781 140.434C499.304 141.42 496.44 141.913 493.186 141.913Z" fill="#070707"/>
<path d="M531.621 141.913C527.688 141.913 524.313 141.105 521.497 139.488C518.697 137.871 516.544 135.624 515.039 132.746C513.534 129.852 512.781 126.505 512.781 122.706C512.781 118.89 513.534 115.544 515.039 112.666C516.56 109.772 518.721 107.516 521.521 105.9C524.337 104.283 527.696 103.474 531.596 103.474C535.044 103.474 538.046 104.097 540.603 105.342C543.177 106.587 545.184 108.349 546.624 110.629C548.081 112.892 548.85 115.552 548.931 118.607H537.836C537.609 116.7 536.962 115.204 535.894 114.121C534.841 113.038 533.466 112.496 531.766 112.496C530.391 112.496 529.185 112.884 528.149 113.66C527.113 114.42 526.304 115.552 525.721 117.055C525.155 118.543 524.871 120.386 524.871 122.585C524.871 124.783 525.155 126.643 525.721 128.162C526.304 129.666 527.113 130.806 528.149 131.582C529.185 132.342 530.391 132.722 531.766 132.722C532.867 132.722 533.838 132.487 534.68 132.018C535.537 131.55 536.242 130.862 536.792 129.957C537.342 129.035 537.69 127.92 537.836 126.61H548.931C548.817 129.682 548.049 132.366 546.624 134.662C545.216 136.958 543.234 138.744 540.676 140.021C538.135 141.282 535.117 141.913 531.621 141.913Z" fill="#070707"/>
<path d="M573.32 103.959V112.69H549.795V103.959H573.32ZM554.724 95.0349H566.595V129.496C566.595 130.224 566.709 130.814 566.935 131.267C567.178 131.703 567.526 132.018 567.979 132.212C568.432 132.39 568.975 132.479 569.606 132.479C570.059 132.479 570.536 132.439 571.038 132.358C571.556 132.261 571.945 132.18 572.203 132.115L574 140.676C573.434 140.838 572.632 141.04 571.597 141.282C570.577 141.525 569.355 141.679 567.931 141.743C565.147 141.873 562.759 141.549 560.769 140.773C558.794 139.981 557.281 138.752 556.229 137.087C555.193 135.422 554.691 133.328 554.724 130.806V95.0349Z" fill="#070707"/>
<path d="M33.1615 19.2921H16.6816V41.5642H33.1615C38.5175 41.5642 43.5565 38.0007 43.5565 30.4282C43.5565 22.8556 38.5175 19.2921 33.1615 19.2921ZM30.6262 34.5644H24.9216V26.2919H30.6262C32.4009 26.2919 35.3166 26.2919 35.3166 30.4282C35.3166 34.5644 32.4009 34.5644 30.6262 34.5644Z" fill="#4F5B53"/>
<path d="M62.8915 41.5642H71.9554L62.7647 19.2921H50.5315L41.3408 41.5642H50.4048L51.926 37.5552H61.3702L62.8915 41.5642ZM54.0811 31.8281L56.6481 25.0192L59.2152 31.8281H54.0811Z" fill="#4F5B53"/>
<path d="M103.437 19.2921L98.842 35.0099L94.0248 19.2921H84.2002L79.383 35.0099L74.7877 19.2921H65.9456L73.2347 41.5642H85.4679L89.1125 28.7418L92.7571 41.5642H104.99L112.279 19.2921H103.437Z" fill="#4F5B53"/>
<path fill-rule="evenodd" clip-rule="evenodd" d="M0 5H125.823V57H0V5ZM2.60156 7.61187V54.3881H123.221V7.61187H2.60156Z" fill="#4F5B53"/>
<path fill-rule="evenodd" clip-rule="evenodd" d="M276.713 28.4999C276.713 27.5761 277.522 26.7868 278.438 26.7868H517.104C518.021 26.7868 518.764 27.5357 518.764 28.4595C518.764 29.3833 518.021 30.1322 517.104 30.1322H278.438C277.522 30.1322 276.713 29.4237 276.713 28.4999Z" fill="#4F5B53"/>
<path fill-rule="evenodd" clip-rule="evenodd" d="M220.404 53.6545L258.945 53.6545C260.779 53.6545 262.265 52.1567 262.265 50.3091L262.265 11.6907C262.265 9.8431 260.779 8.34532 258.945 8.34532L220.404 8.34531C218.571 8.34531 217.084 9.8431 217.084 11.6907L217.084 50.3091C217.084 52.1567 218.571 53.6545 220.404 53.6545Z" fill="#4F5B53"/>
<path fill-rule="evenodd" clip-rule="evenodd" d="M221.64 52.2432L257.713 52.2432C259.547 52.2432 261.033 50.7454 261.033 48.8978L261.033 12.7556C261.033 10.9079 259.547 9.41016 257.713 9.41016L221.64 9.41016C219.806 9.41016 218.32 10.9079 218.32 12.7556L218.32 48.8978C218.32 50.7454 219.806 52.2432 221.64 52.2432ZM257.713 55.5886C261.381 55.5886 264.353 52.593 264.353 48.8978L264.353 12.7556C264.353 9.06034 261.381 6.06477 257.713 6.06477L239.677 6.06477L221.64 6.06477C217.973 6.06477 215 9.06033 215 12.7556L215 48.8978C215 52.593 217.973 55.5886 221.64 55.5886L239.677 55.5886L257.713 55.5886Z" fill="#4F5B53"/>
<path d="M291.572 37.0677H277.076V56.026H291.572C296.283 56.026 300.715 52.9927 300.715 46.5469C300.715 40.101 296.283 37.0677 291.572 37.0677ZM289.342 50.0677H284.324V43.026H289.342C290.903 43.026 293.467 43.026 293.467 46.5469C293.467 50.0677 290.903 50.0677 289.342 50.0677Z" fill="#4F5B53"/>
<path d="M313.537 56.2969C322.095 56.2969 325.803 53.101 325.803 46.5198C325.803 39.9656 322.095 36.7969 313.537 36.7969C304.951 36.7969 301.271 39.9385 301.271 46.5198C301.271 53.1281 304.951 56.2969 313.537 56.2969ZM313.537 50.3385C309.272 50.3385 308.519 48.551 308.519 46.5198C308.519 44.5156 309.244 42.7552 313.537 42.7552C317.83 42.7552 318.555 44.5427 318.555 46.5198C318.555 48.524 317.802 50.3385 313.537 50.3385Z" fill="#4F5B53"/>
<path d="M357.689 37.0677L353.647 50.4469L349.41 37.0677H340.768L336.53 50.4469L332.488 37.0677H324.711L331.122 56.026H341.883L345.089 45.1115L348.294 56.026H359.055L365.467 37.0677H357.689Z" fill="#4F5B53"/>
<path d="M384.212 37.0677V48.2531L375.793 37.0677H366.315V56.026H373.563V44.8406L381.982 56.026H391.46V37.0677H384.212Z" fill="#4F5B53"/>
<path d="M399.834 50.0677V37.0677H392.586V56.026H412.657V50.0677H399.834Z" fill="#4F5B53"/>
<path d="M425.48 56.2969C434.039 56.2969 437.746 53.101 437.746 46.5198C437.746 39.9656 434.039 36.7969 425.48 36.7969C416.894 36.7969 413.215 39.9385 413.215 46.5198C413.215 53.1281 416.894 56.2969 425.48 56.2969ZM425.48 50.3385C421.215 50.3385 420.463 48.551 420.463 46.5198C420.463 44.5156 421.187 42.7552 425.48 42.7552C429.773 42.7552 430.498 44.5427 430.498 46.5198C430.498 48.524 429.746 50.3385 425.48 50.3385Z" fill="#4F5B53"/>
<path d="M454.767 56.026H462.739L454.655 37.0677H443.894L435.81 56.026H443.783L445.121 52.6135H453.428L454.767 56.026ZM447.017 47.7385L449.275 41.9427L451.533 47.7385H447.017Z" fill="#4F5B53"/>
<path d="M477.809 37.0677H463.313V56.026H477.809C482.52 56.026 486.952 52.9927 486.952 46.5469C486.952 40.101 482.52 37.0677 477.809 37.0677ZM475.578 50.0677H470.561V43.026H475.578C477.14 43.026 479.704 43.026 479.704 46.5469C479.704 50.0677 477.14 50.0677 475.578 50.0677Z" fill="#4F5B53"/>
<path d="M487.508 49.3365C487.508 54.9698 491.968 56.2969 499.969 56.2969C507.97 56.2969 512.43 54.9698 512.43 49.7427C512.43 44.7865 507.663 44.2719 499.969 43.974C495.732 43.8115 495.035 43.8385 495.035 43.1073C495.035 42.376 495.732 42.2135 499.133 42.2135C502.673 42.2135 504.346 42.4302 504.346 43.4323H511.594C511.594 38.5844 507.3 36.7969 499.69 36.7969C491.996 36.7969 487.787 38.5844 487.787 42.7552C487.787 47.1698 491.16 48.5781 499.969 48.849C504.541 48.9844 505.182 49.0927 505.182 49.9052C505.182 50.6094 504.541 50.8802 500.248 50.8802C495.648 50.8802 494.756 50.2573 494.756 49.3365H487.508Z" fill="#4F5B53"/>
<path d="M288.29 6.66642V10.6283H281.65V6.66642H277.439V18.222H281.65V14.2601H288.29V18.222H292.501V6.66642H288.29Z" fill="#4F5B53"/>
<path d="M293.145 5.01562V7.65689H297.032V5.01562H293.145ZM293.145 8.31721V18.222H297.032V8.31721H293.145Z" fill="#4F5B53"/>
<path d="M306.851 8.31721V9.80293C306.009 8.76293 304.632 8.15213 302.672 8.15213C299.676 8.15213 297.522 9.60483 297.522 12.9394C297.522 16.274 299.676 17.7267 302.672 17.7267C304.632 17.7267 306.009 17.1159 306.851 16.0759C306.819 18.5852 305.798 19.0474 303.903 19.0474C301.798 19.0474 299.66 18.5686 298.542 18.354V21.5731C299.466 21.8207 301.846 22.349 304.616 22.349C307.952 22.349 310.738 20.9128 310.738 16.9509V8.31721H306.851ZM304.13 14.4251C302.073 14.4251 301.409 14.062 301.409 12.9394C301.409 11.8169 302.073 11.4537 304.13 11.4537C306.187 11.4537 306.851 11.8169 306.851 12.9394C306.851 14.062 306.187 14.4251 304.13 14.4251Z" fill="#4F5B53"/>
<path d="M319.965 8.15213C317.924 8.15213 316.434 8.81245 315.268 9.63785V5.01562H311.381V18.222H315.268V12.8734C316.029 12.1305 317.244 11.6188 318.394 11.6188C320.143 11.6188 320.742 12.3451 320.742 14.0455V18.222H324.63V12.4277C324.63 8.84547 322.151 8.15213 319.965 8.15213Z" fill="#4F5B53"/>
<path d="M325.608 10.9585V14.2601H338.565V10.9585H325.608Z" fill="#4F5B53"/>
<path d="M355.455 17.0994L353.269 14.8709C353.512 14.161 353.625 13.3521 353.625 12.4277C353.625 8.43277 351.471 6.50134 346.499 6.50134C341.51 6.50134 339.373 8.41626 339.373 12.4277C339.373 16.4556 341.51 18.3871 346.499 18.3871C347.989 18.3871 349.236 18.2055 350.24 17.8588L352.475 20.1369L355.455 17.0994ZM346.499 14.7553C344.021 14.7553 343.584 13.6658 343.584 12.4277C343.584 11.2061 344.005 10.1331 346.499 10.1331C348.993 10.1331 349.414 11.2226 349.414 12.4277C349.414 13.6493 348.977 14.7553 346.499 14.7553Z" fill="#4F5B53"/>
<path d="M364.507 8.31721V13.6658C363.746 14.4086 362.531 14.9204 361.381 14.9204C359.632 14.9204 359.032 14.194 359.032 12.4937V8.31721H355.145V14.1115C355.145 17.6937 357.623 18.3871 359.81 18.3871C361.851 18.3871 363.341 17.7267 364.507 16.9013V18.222H368.394V8.31721H364.507Z" fill="#4F5B53"/>
<path d="M375.527 8.15213C373.729 8.15213 371.623 8.51531 369.68 9.15912L370.943 11.9655C372.725 11.5693 374.15 11.4537 375.397 11.4537C376.693 11.4537 377.924 11.5032 377.924 12.6918C377.033 12.3617 375.996 12.1801 374.636 12.1801C371.801 12.1801 368.886 12.8569 368.886 15.4321C368.886 17.5782 370.83 18.3871 373.049 18.3871C374.733 18.3871 376.417 18.1394 377.924 17.0169V18.222H381.811V13.3191C381.778 9.5388 379.511 8.15213 375.527 8.15213ZM377.924 14.9864C376.952 15.4156 375.527 15.7458 374.215 15.7458C373.227 15.7458 372.773 15.6632 372.773 15.1185C372.773 14.4912 373.551 14.3261 375.348 14.3261C376.466 14.3261 377.308 14.4086 377.924 14.5737V14.9864Z" fill="#4F5B53"/>
<path d="M382.461 5.01562V18.222H386.348V5.01562H382.461Z" fill="#4F5B53"/>
<path d="M387 5.01562V7.65689H390.887V5.01562H387ZM387 8.31721V18.222H390.887V8.31721H387Z" fill="#4F5B53"/>
<path d="M401.192 11.6188V8.31721H397.224V5.67594L393.337 6.66642V8.31721H391.377V11.6188H393.337V15.3001C393.337 17.4461 394.827 18.3871 397.839 18.3871C399.119 18.3871 400.269 18.3045 401.192 18.1394V14.9204C400.075 15.0855 399.589 15.0855 398.714 15.0855C397.58 15.0855 397.224 14.6067 397.224 13.6658V11.6188H401.192Z" fill="#4F5B53"/>
<path d="M411.25 8.31721L408.545 15.201L405.727 8.31721H401.516L405.565 18.222H407.346L405.727 22.349H409.938L415.461 8.31721H411.25Z" fill="#4F5B53"/>
<path d="M422.429 15.2505V18.222H426.316V15.2505H422.429Z" fill="#4F5B53"/>
<path d="M445.001 6.66642L442.653 14.8213L440.191 6.66642H435.17L432.709 14.8213L430.36 6.66642H425.841L429.567 18.222H435.818L437.681 11.5693L439.543 18.222H445.795L449.52 6.66642H445.001Z" fill="#4F5B53"/>
<path d="M455.036 8.15213C453.238 8.15213 451.133 8.51531 449.189 9.15912L450.453 11.9655C452.234 11.5693 453.66 11.4537 454.907 11.4537C456.202 11.4537 457.433 11.5032 457.433 12.6918C456.542 12.3617 455.506 12.1801 454.145 12.1801C451.311 12.1801 448.396 12.8569 448.396 15.4321C448.396 17.5782 450.339 18.3871 452.558 18.3871C454.243 18.3871 455.927 18.1394 457.433 17.0169V18.222H461.32V13.3191C461.288 9.5388 459.02 8.15213 455.036 8.15213ZM457.433 14.9864C456.461 15.4156 455.036 15.7458 453.724 15.7458C452.736 15.7458 452.283 15.6632 452.283 15.1185C452.283 14.4912 453.06 14.3261 454.858 14.3261C455.976 14.3261 456.818 14.4086 457.433 14.5737V14.9864Z" fill="#4F5B53"/>
<path d="M469.921 8.31721L467.33 15.234L464.722 8.31721H460.511L464.56 18.222H470.083L474.132 8.31721H469.921Z" fill="#4F5B53"/>
<path d="M493.093 10.2982V6.66642H481.108V18.222H485.319V15.168H492.121V11.5363H485.319V10.2982H493.093Z" fill="#4F5B53"/>
<path d="M493.572 5.01562V7.65689H497.459V5.01562H493.572ZM493.572 8.31721V18.222H497.459V8.31721H493.572Z" fill="#4F5B53"/>
<path d="M498.111 5.01562V18.222H501.998V5.01562H498.111Z" fill="#4F5B53"/>
<path d="M508.934 15.2505C507.865 15.2505 506.78 14.9864 506.456 13.9299H515.672C515.672 9.60483 513.097 8.15213 509.096 8.15213C505.128 8.15213 502.488 9.60483 502.488 13.2696C502.488 16.9344 505.128 18.3871 508.934 18.3871C512.935 18.3871 515.024 17.1325 515.51 14.5077H511.704C510.91 15.1515 510.343 15.2505 508.934 15.2505ZM509.08 10.9585C510.117 10.9585 511.088 11.0575 511.526 11.949H506.634C507.072 11.0575 508.044 10.9585 509.08 10.9585Z" fill="#4F5B53"/>
<path fill-rule="evenodd" clip-rule="evenodd" d="M229.027 25.9935L231.744 23.1157L238.07 29.8165V16.4149C238.07 15.291 238.93 14.3799 239.991 14.3799C241.052 14.3799 241.912 15.291 241.912 16.4149V29.8165L248.239 23.1157L250.956 25.9935L239.991 37.6071L229.027 25.9935Z" fill="#E3D9CC"/>
<path fill-rule="evenodd" clip-rule="evenodd" d="M226.29 38.8355C227.295 38.8355 228.11 39.6565 228.11 40.6692C228.11 41.6819 228.996 42.5029 230.09 42.5029L249.887 42.5029C250.98 42.5029 251.866 41.6819 251.866 40.6692C251.866 39.6565 252.681 38.8355 253.686 38.8355H254.006C255.011 38.8355 255.826 39.6565 255.826 40.6692C255.826 43.7074 253.167 46.1704 249.887 46.1704H230.09C226.81 46.1704 224.151 43.7074 224.151 40.6692C224.151 39.6565 224.965 38.8355 225.97 38.8355H226.29Z" fill="#E3D9CC"/>
<path d="M146.978 29.3047V27.0275H135.385V38.1745H146.978V35.8973H138.205V33.6361H146.978V31.5659H138.205V29.3047H146.978Z" fill="#4F5B53"/>
<path d="M157.718 25.4351V30.2601C156.715 29.1932 155.101 28.6358 153.112 28.6358C150.151 28.6358 147.613 29.9098 147.613 33.4927C147.613 37.0757 150.151 38.3337 153.112 38.3337C155.101 38.3337 156.715 37.7764 157.718 36.7095V38.1745H160.397V25.4351H157.718ZM154.005 36.0566C151.608 36.0566 150.308 35.34 150.308 33.4927C150.308 31.6296 151.608 30.913 154.005 30.913C156.402 30.913 157.718 31.6296 157.718 33.4927C157.718 35.34 156.402 36.0566 154.005 36.0566Z" fill="#4F5B53"/>
<path d="M161.333 25.4351V27.8078H164.011V25.4351H161.333ZM161.333 28.7951V38.1745H164.011V28.7951H161.333Z" fill="#4F5B53"/>
<path d="M174.12 31.0723V28.7951H169.749V26.072L167.054 26.8523V28.7951H164.626V31.0723H167.054V35.3559C167.054 37.4261 168.59 38.3337 170.971 38.3337C172.208 38.3337 173.227 38.2541 174.12 38.0949V35.8973C173.039 36.0566 172.569 36.0566 171.723 36.0566C170.093 36.0566 169.749 35.5948 169.749 33.7794V31.0723H174.12Z" fill="#4F5B53"/>
<path d="M148.832 41.6938H135.36V44.0983H140.686V52.8408H143.506V44.0983H148.832V41.6938Z" fill="#4F5B53"/>
<path d="M154.059 53C157.866 53 160.451 51.5987 160.451 48.159C160.451 44.7034 157.866 43.3021 154.059 43.3021C150.237 43.3021 147.668 44.7034 147.668 48.159C147.668 51.5987 150.237 53 154.059 53ZM154.059 50.7228C151.569 50.7228 150.347 50.1018 150.347 48.159C150.347 46.2003 151.569 45.5793 154.059 45.5793C156.535 45.5793 157.757 46.2003 157.757 48.159C157.757 50.1018 156.535 50.7228 154.059 50.7228Z" fill="#4F5B53"/>
<path d="M167.301 53C171.108 53 173.693 51.5987 173.693 48.159C173.693 44.7034 171.108 43.3021 167.301 43.3021C163.478 43.3021 160.909 44.7034 160.909 48.159C160.909 51.5987 163.478 53 167.301 53ZM167.301 50.7228C164.81 50.7228 163.588 50.1018 163.588 48.159C163.588 46.2003 164.81 45.5793 167.301 45.5793C169.776 45.5793 170.998 46.2003 170.998 48.159C170.998 50.1018 169.776 50.7228 167.301 50.7228Z" fill="#4F5B53"/>
<path d="M174.399 40.1013V52.8408H177.078V40.1013H174.399Z" fill="#4F5B53"/>
<path d="M147.815 14.685C147.815 12.2008 146.107 10.5924 143.616 10.5924H135V21.7394H137.82V18.7616H142.363L144.133 21.7394H147.454L145.434 18.4272C146.906 17.838 147.815 16.5003 147.815 14.685ZM137.82 12.997H142.833C143.679 12.997 144.995 12.997 144.995 14.685C144.995 16.357 143.679 16.357 142.833 16.357H137.82V12.997Z" fill="#4F5B53"/>
<path d="M154.309 12.2008C152.382 12.2008 150.533 12.5511 148.653 13.1722L149.609 15.1627C151.505 14.5894 152.977 14.478 154.184 14.478C155.437 14.478 157.693 14.6213 157.693 16.4048C156.486 15.9908 155.03 15.736 153.447 15.736C150.518 15.736 147.886 16.5003 147.886 18.9368C147.886 21.0547 149.499 21.8987 152.084 21.8987C154.262 21.8987 156.063 21.3891 157.693 20.577V21.7394H160.387V17.0099C160.356 13.4588 158.163 12.2008 154.309 12.2008ZM157.693 18.8253C156.314 19.4304 154.309 19.8922 152.852 19.8922C151.458 19.8922 150.565 19.8126 150.565 18.8253C150.565 17.8698 151.771 17.5195 153.776 17.5195C155.484 17.5195 156.753 17.7902 157.693 18.0928V18.8253Z" fill="#4F5B53"/>
<path d="M168.553 12.2008C166.564 12.2008 164.966 12.7581 163.963 13.8091V12.36H161.269V25.7205H163.963V20.2903C164.966 21.3573 166.564 21.8987 168.553 21.8987C171.53 21.8987 174.052 20.6407 174.052 17.0577C174.052 13.4747 171.53 12.2008 168.553 12.2008ZM167.66 19.6215C165.263 19.6215 163.963 18.9049 163.963 17.0577C163.963 15.1945 165.263 14.478 167.66 14.478C170.057 14.478 171.373 15.1945 171.373 17.0577C171.373 18.9049 170.057 19.6215 167.66 19.6215Z" fill="#4F5B53"/>
<path d="M174.831 9V11.3727H177.51V9H174.831ZM174.831 12.36V21.7394H177.51V12.36H174.831Z" fill="#4F5B53"/>
<path d="M188.321 9V13.8251C187.319 12.7581 185.705 12.2008 183.715 12.2008C180.754 12.2008 178.217 13.4747 178.217 17.0577C178.217 20.6407 180.754 21.8987 183.715 21.8987C185.705 21.8987 187.319 21.3413 188.321 20.2744V21.7394H191V9H188.321ZM184.608 19.6215C182.211 19.6215 180.911 18.9049 180.911 17.0577C180.911 15.1945 182.211 14.478 184.608 14.478C187.005 14.478 188.321 15.1945 188.321 17.0577C188.321 18.9049 187.005 19.6215 184.608 19.6215Z" fill="#4F5B53"/>
</svg>
