<svg width="24" height="24" viewBox="0 0 24 24" fill="none" xmlns="http://www.w3.org/2000/svg">
<g clip-path="url(#clip0_1_218)">
<path d="M12 24C18.6274 24 24 18.6274 24 12C24 5.37258 18.6274 0 12 0C5.37258 0 0 5.37258 0 12C0 18.6274 5.37258 24 12 24Z" fill="#576B68"/>
<path d="M12.0131 15C13.821 15 15 13.6931 15 12.0297C15 10.3366 13.821 9 12.0131 9C10.179 9 9 10.3366 9 12.0297C9 13.6931 10.179 15 12.0131 15Z" fill="#CBC1AE"/>
<path d="M12.0044 13C12.607 13 13 12.5644 13 12.0099C13 11.4455 12.607 11 12.0044 11C11.393 11 11 11.4455 11 12.0099C11 12.5644 11.393 13 12.0044 13Z" fill="#576B68"/>
<circle cx="12" cy="12" r="3.875" stroke="#CBC1AE" stroke-width="0.25"/>
<circle cx="12" cy="12" r="11.875" stroke="#CBC1AE" stroke-width="0.25"/>
</g>
<defs>
<clipPath id="clip0_1_218">
<rect width="24" height="24" fill="white"/>
</clipPath>
</defs>
</svg>
